<svg width="10" height="10" viewBox="0 0 10 10" fill="none" xmlns="http://www.w3.org/2000/svg">
<path d="M5.1737 8.69207C5.43759 8.39886 5.41387 7.94732 5.12069 7.68342L2.13938 4.99996L5.12069 2.31651C5.41387 2.05261 5.43759 1.60107 5.1737 1.30786C4.9098 1.01467 4.45826 0.990958 4.16505 1.25485L0.593622 4.46913C0.443136 4.60459 0.357154 4.79749 0.357154 4.99996C0.357154 5.20244 0.443136 5.39534 0.593622 5.5308L4.16505 8.74508C4.45826 9.00897 4.9098 8.98525 5.1737 8.69207Z" fill="#777777"/>
<path d="M9.10226 8.69207C9.36615 8.39886 9.34243 7.94732 9.04925 7.68342L6.06794 4.99996L9.04925 2.31651C9.34243 2.05261 9.36615 1.60107 9.10226 1.30786C8.83835 1.01467 8.38682 0.990958 8.09361 1.25485L4.52218 4.46913C4.37169 4.60459 4.28571 4.79749 4.28571 4.99996C4.28571 5.20244 4.37169 5.39534 4.52218 5.5308L8.09361 8.74508C8.38682 9.00897 8.83835 8.98525 9.10226 8.69207Z" fill="#777777"/>
</svg>
