<svg width="126" height="142" viewBox="0 0 126 142" fill="none" xmlns="http://www.w3.org/2000/svg">
<g clip-path="url(#clip0_3634_9698)">
<path d="M40.8279 96.168V122.954H59.863V129.36H41.2971C37.2102 129.36 33.8985 126.045 33.8985 121.953V96.1659H40.8299L40.8279 96.168Z" fill="#1C052B"/>
<path d="M27.2916 102.574V96.1659H8.02914C3.59492 96.1659 0 99.7652 0 104.205V121.321C0 125.761 3.59492 129.36 8.02914 129.36H27.2916V122.954H6.93144V102.576H27.2916V102.574Z" fill="#1C052B"/>
<path d="M91.4214 96.1886V102.574H72.3863V110.689H91.4214V117.074H72.3863V129.36H65.4548V102.706C65.4548 99.1069 68.3696 96.1886 71.9646 96.1886H91.4193H91.4214Z" fill="#1C052B"/>
<path d="M107.124 129.36V116.776L95.1342 96.2135H103.083L110.568 109.791L118.054 96.2135H126L114.033 116.776V129.36H107.126H107.124Z" fill="#1C052B"/>
<path d="M4.33083 136.352C3.56388 136.352 3.08015 136.747 3.07602 137.279C3.07602 137.873 3.72099 138.109 4.2192 138.225L4.82696 138.39C5.62698 138.587 6.63373 139.024 6.63786 140.16C6.63373 141.224 5.78823 142 4.30602 142C2.90237 142 2.01966 141.298 1.95764 140.152H2.91064C2.96645 140.837 3.57215 141.162 4.30602 141.166C5.10811 141.162 5.689 140.758 5.69313 140.141C5.689 139.595 5.17012 139.374 4.50654 139.196L3.76234 138.995C2.75353 138.717 2.12715 138.206 2.12509 137.329C2.12922 136.244 3.09255 135.524 4.35977 135.524C5.62698 135.524 6.52209 136.252 6.5531 137.269H5.62698C5.56703 136.683 5.05436 136.35 4.33496 136.35L4.33083 136.352Z" fill="#6D6E71"/>
<path d="M11.1775 141.981C9.54439 141.981 8.34332 140.758 8.34332 138.753C8.34332 136.747 9.54439 135.524 11.1775 135.524C12.8106 135.524 14.0034 136.743 14.0034 138.753C14.0034 140.762 12.8003 141.981 11.1775 141.981ZM11.1775 141.106C12.2525 141.11 13.0545 140.282 13.0587 138.755C13.0545 137.227 12.2525 136.399 11.1775 136.403C10.0943 136.399 9.29425 137.227 9.28805 138.755C9.29218 140.282 10.0943 141.11 11.1775 141.106Z" fill="#6D6E71"/>
<path d="M15.9714 135.613H19.864V136.439H16.9244V138.339H19.587V139.154H16.9244V141.897H15.9714V135.615V135.613Z" fill="#6D6E71"/>
<path d="M21.5074 135.613H26.3696V136.439H24.4202V141.897H23.4672V136.439H21.5095V135.613H21.5074Z" fill="#6D6E71"/>
<path d="M27.7298 135.613H28.7345L29.9562 140.473H30.0079L31.2813 135.613H32.2695L33.5429 140.473H33.5946L34.8163 135.613H35.821L34.0783 141.894H33.117L31.7982 137.2H31.7465L30.4296 141.894H29.4663L27.7236 135.613H27.7298Z" fill="#6D6E71"/>
<path d="M36.4825 141.894L38.7358 135.613H39.8356L42.0992 141.894H41.0842L40.5137 140.237H38.0702L37.4976 141.894H36.4846H36.4825ZM40.2346 139.44L39.3064 136.759H39.263L38.341 139.44H40.2346Z" fill="#6D6E71"/>
<path d="M43.7881 135.613H46.0228C47.4823 135.613 48.1996 136.424 48.1996 137.583C48.1996 138.43 47.8193 139.067 47.0544 139.359L48.4415 141.897H47.3583L46.0848 139.527H44.7432V141.897H43.7902V135.615L43.7881 135.613ZM45.9298 138.703C46.8518 138.699 47.2384 138.291 47.2384 137.583C47.2384 136.875 46.8518 136.434 45.9298 136.43H44.7432V138.703H45.9298Z" fill="#6D6E71"/>
<path d="M50.149 135.613H54.0829V136.439H51.102V138.339H53.8762V139.154H51.102V141.073H54.1181V141.897H50.149V135.615V135.613Z" fill="#6D6E71"/>
<path d="M58.726 141.894L60.9792 135.613H62.079L64.3426 141.894H63.3276L62.7571 140.237H60.3136L59.743 141.894H58.728H58.726ZM62.4801 139.44L61.5519 136.759H61.5085L60.5865 139.44H62.4801Z" fill="#6D6E71"/>
<path d="M68.1029 136.352C67.336 136.352 66.8502 136.747 66.8481 137.279C66.8481 137.873 67.4931 138.109 67.9913 138.225L68.597 138.39C69.3991 138.587 70.4058 139.024 70.4079 140.16C70.4037 141.224 69.5582 142 68.076 142C66.6724 142 65.7897 141.298 65.7277 140.152H66.6807C66.7365 140.837 67.3422 141.162 68.074 141.166C68.8761 141.162 69.457 140.758 69.4611 140.141C69.457 139.595 68.9381 139.374 68.2745 139.196L67.5303 138.995C66.5215 138.717 65.8972 138.206 65.893 137.329C65.8972 136.244 66.8605 135.524 68.1277 135.524C69.3949 135.524 70.29 136.252 70.3211 137.269H69.3949C69.335 136.683 68.8223 136.35 68.1029 136.35V136.352Z" fill="#6D6E71"/>
<path d="M74.9041 141.894L77.1574 135.613H78.2572L80.5208 141.894H79.5058L78.9352 140.237H76.4917L75.9212 141.894H74.9062H74.9041ZM78.6561 139.44L77.728 136.759H77.6845L76.7626 139.44H78.6561Z" fill="#6D6E71"/>
<path d="M87.3882 136.352C86.6213 136.352 86.1355 136.747 86.1334 137.279C86.1334 137.873 86.7784 138.109 87.2766 138.225L87.8823 138.39C88.6843 138.587 89.689 139.024 89.6932 140.16C89.689 141.224 88.8435 142 87.3613 142C85.9577 142 85.075 141.298 85.0129 140.152H85.9659C86.0218 140.837 86.6275 141.162 87.3593 141.166C88.1613 141.162 88.7422 140.758 88.7464 140.141C88.7422 139.595 88.2234 139.374 87.5598 139.196L86.8156 138.995C85.8068 138.717 85.1825 138.206 85.1783 137.329C85.1825 136.244 86.1458 135.524 87.413 135.524C88.6802 135.524 89.5753 136.252 89.6063 137.269H88.6802C88.6203 136.683 88.1076 136.35 87.3882 136.35V136.352Z" fill="#6D6E71"/>
<path d="M91.6115 135.613H95.5455V136.439H92.5645V138.339H95.3367V139.154H92.5645V141.073H95.5806V141.897H91.6115V135.615V135.613Z" fill="#6D6E71"/>
<path d="M97.6065 135.613H99.8412C101.303 135.613 102.018 136.424 102.018 137.583C102.018 138.43 101.638 139.067 100.873 139.359L102.26 141.897H101.177L99.9032 139.527H98.5616V141.897H97.6086V135.615L97.6065 135.613ZM99.7482 138.703C100.67 138.699 101.057 138.291 101.057 137.583C101.057 136.875 100.67 136.434 99.7482 136.43H98.5616V138.703H99.7482Z" fill="#6D6E71"/>
<path d="M106.109 140.723H106.179L107.922 135.613H108.954L106.69 141.894H105.59L103.337 135.613H104.368L106.109 140.723Z" fill="#6D6E71"/>
<path d="M111.595 141.894H110.642V135.613H111.595V141.894Z" fill="#6D6E71"/>
<path d="M116.385 136.403C115.302 136.399 114.5 137.231 114.496 138.755C114.5 140.286 115.306 141.11 116.385 141.106C117.175 141.11 117.843 140.669 118.006 139.866L118.967 139.874C118.769 141.114 117.758 141.983 116.377 141.983C114.742 141.983 113.551 140.764 113.551 138.755C113.551 136.745 114.752 135.526 116.377 135.526C117.702 135.526 118.754 136.312 118.967 137.66H118.006C117.855 136.848 117.181 136.397 116.385 136.403Z" fill="#6D6E71"/>
<path d="M120.892 135.613H124.826V136.439H121.845V138.339H124.619V139.154H121.845V141.073H124.861V141.897H120.892V135.615V135.613Z" fill="#6D6E71"/>
<path d="M35.2154 47.7238H35.2981V41.8292C35.2981 40.0472 36.741 38.6025 38.5209 38.6025H42.8166C48.7826 38.6025 53.6179 33.7614 53.6179 27.7882V23.1458H35.2133V35.293C35.2133 37.075 33.7704 38.5197 31.9905 38.5197H25.9686V47.848H35.2154V47.7238Z" fill="#7477B8"/>
<path d="M86.7495 37.5759H87.442V37.4683H87.5247V24.1248H79.1916C76.0226 24.1206 73.2173 22.8581 71.1336 20.7822C69.0601 18.6959 67.7991 15.8873 67.795 12.7144V14.7489C67.795 27.3556 74.16 37.5739 86.7495 37.5739V37.5759Z" fill="url(#paint0_linear_3634_9698)"/>
<path d="M86.7494 37.5759C74.1579 37.5759 67.795 27.3577 67.795 14.751V0L55.3316 19.6024C56.512 23.7046 58.6991 27.3867 61.6201 30.307C66.0957 34.7984 72.3491 37.5966 79.1896 37.5925H87.4399V37.5759H86.7474H86.7494Z" fill="url(#paint1_linear_3634_9698)"/>
<path d="M87.5226 37.4683V37.5924H87.4399V43.4891C87.4399 45.2711 85.997 46.7158 84.2171 46.7158H79.9214C73.9553 46.7158 69.1201 51.5569 69.1201 57.5301V62.1726H87.5246V50.0253C87.5246 48.2433 88.9676 46.7986 90.7475 46.7986H96.7693V37.4703H87.5226V37.4683Z" fill="#7477B8"/>
<path d="M87.5226 37.4683H87.4399V37.5759H87.5226V37.4683Z" fill="#7477B8"/>
<path d="M87.5226 37.5759H87.4399V37.5925H87.5226V37.5759Z" fill="#7477B8"/>
<path d="M35.9906 47.7383H35.2981V47.8459H35.2154V61.1895H43.5484C46.7175 61.1936 49.5227 62.4561 51.6065 64.5321C53.6799 66.6184 54.9409 69.427 54.9451 72.5999V70.5653C54.9451 57.9586 48.5801 47.7404 35.9906 47.7404V47.7383Z" fill="url(#paint2_linear_3634_9698)"/>
<path d="M35.2981 47.7383H35.2154V47.8459H35.2981V47.7383Z" fill="#7477B8"/>
<path d="M35.2981 47.7383H35.2154V47.8459H35.2981V47.7383Z" fill="url(#paint3_linear_3634_9698)"/>
<path d="M61.1178 55.0093C56.6422 50.518 50.3888 47.7197 43.5484 47.7239H35.298V47.7404H35.9906C48.5821 47.7404 54.945 57.9608 54.945 70.5654V87.2392L67.3174 65.3621C66.1143 61.4007 63.9582 57.8469 61.1178 55.0114V55.0093Z" fill="url(#paint4_linear_3634_9698)"/>
<path d="M35.2981 47.7239H35.2154V47.7404H35.2981V47.7239Z" fill="#7477B8"/>
<path d="M35.2981 47.7239H35.2154V47.7404H35.2981V47.7239Z" fill="url(#paint5_linear_3634_9698)"/>
</g>
<defs>
<linearGradient id="paint0_linear_3634_9698" x1="91.8038" y1="25.1452" x2="64.9133" y2="25.1452" gradientUnits="userSpaceOnUse">
<stop stop-color="#5B57A6"/>
<stop offset="1" stop-color="#150F25"/>
</linearGradient>
<linearGradient id="paint1_linear_3634_9698" x1="71.3857" y1="39.1696" x2="71.3857" y2="-2.27049" gradientUnits="userSpaceOnUse">
<stop stop-color="#7477B8"/>
<stop offset="1" stop-color="#3B328D"/>
</linearGradient>
<linearGradient id="paint2_linear_3634_9698" x1="30.9362" y1="60.1691" x2="57.8247" y2="60.1691" gradientUnits="userSpaceOnUse">
<stop stop-color="#5B57A6"/>
<stop offset="1" stop-color="#150F25"/>
</linearGradient>
<linearGradient id="paint3_linear_3634_9698" x1="30.9301" y1="47.7921" x2="57.8513" y2="47.7921" gradientUnits="userSpaceOnUse">
<stop stop-color="#5B57A6"/>
<stop offset="1" stop-color="#150F25"/>
</linearGradient>
<linearGradient id="paint4_linear_3634_9698" x1="51.3088" y1="46.0619" x2="51.3088" y2="89.6256" gradientUnits="userSpaceOnUse">
<stop stop-color="#7477B8"/>
<stop offset="1" stop-color="#3B328D"/>
</linearGradient>
<linearGradient id="paint5_linear_3634_9698" x1="35.2588" y1="46.0577" x2="35.2588" y2="89.759" gradientUnits="userSpaceOnUse">
<stop stop-color="#7477B8"/>
<stop offset="1" stop-color="#3B328D"/>
</linearGradient>
<clipPath id="clip0_3634_9698">
<rect width="126" height="142" fill="white"/>
</clipPath>
</defs>
</svg>
