<svg width="63" height="20" viewBox="0 0 63 20" fill="none" xmlns="http://www.w3.org/2000/svg">
<g clip-path="url(#clip0_3634_10275)">
<path d="M34.3227 4.04921V12.9414H40.7315V15.0683H34.4801C33.1047 15.0683 31.989 13.9676 31.989 12.6093V4.04921H34.3227Z" fill="white"/>
<path d="M29.7648 6.17611V4.04921H23.2786C21.7857 4.04921 20.575 5.24377 20.575 6.71803V12.4001C20.575 13.8737 21.7851 15.069 23.2786 15.069H29.7648V12.9421H22.9093V6.17676H29.7648V6.17611Z" fill="white"/>
<path d="M51.357 4.05698V6.17676H44.9482V8.87083H51.357V10.9906H44.9482V15.069H42.6145V6.22013C42.6145 5.02493 43.5957 4.05633 44.8065 4.05633H51.357V4.05698Z" fill="white"/>
<path d="M56.6443 15.0683V10.8909L52.6072 4.06474H55.2833L57.8032 8.57235L60.3239 4.06474H62.9993L58.9701 10.8909V15.0683H56.6443Z" fill="white"/>
<path d="M22.0337 17.3894C21.7752 17.3894 21.6119 17.5202 21.6106 17.6976C21.6106 17.8951 21.8277 17.9728 21.9956 18.0117L22.2003 18.066C22.4699 18.1308 22.8083 18.2765 22.8096 18.6533C22.8083 19.0068 22.5236 19.2638 22.0245 19.2638C21.5522 19.2638 21.2545 19.0308 21.2341 18.6507H21.5555C21.5745 18.878 21.7785 18.9861 22.0251 18.9874C22.2954 18.9861 22.4908 18.8521 22.4922 18.6475C22.4908 18.4662 22.3157 18.3924 22.0927 18.3334L21.8422 18.2674C21.5024 18.1755 21.2919 18.0058 21.2905 17.7145C21.2919 17.3545 21.6159 17.1156 22.0435 17.1156C22.4712 17.1156 22.7716 17.3577 22.7821 17.695H22.4698C22.4495 17.5002 22.277 17.3894 22.035 17.3894H22.0337Z" fill="white"/>
<path d="M24.3386 19.2587C23.789 19.2587 23.3843 18.8527 23.3843 18.1871C23.3843 17.5215 23.789 17.1156 24.3386 17.1156C24.8883 17.1156 25.2897 17.5202 25.2897 18.1871C25.2897 18.854 24.8843 19.2587 24.3386 19.2587ZM24.3386 18.9673C24.7 18.9692 24.9702 18.6934 24.9716 18.1865C24.9702 17.6795 24.7 17.4043 24.3386 17.4063C23.9739 17.4043 23.7044 17.6795 23.7024 18.1865C23.7044 18.6934 23.9739 18.9686 24.3386 18.9673Z" fill="white"/>
<path d="M25.9534 17.1441H27.2639V17.4179H26.2741V18.0486H27.1701V18.3192H26.2741V19.2295H25.9534V17.1441Z" fill="white"/>
<path d="M27.8174 17.1441H29.4545V17.4179H28.798V19.2295H28.4766V17.4179H27.8174V17.1441Z" fill="white"/>
<path d="M29.9123 17.1441H30.2507L30.662 18.7569H30.6797L31.1086 17.1441H31.4412L31.8701 18.7569H31.8879L32.2991 17.1441H32.6375L32.0512 19.2295H31.7272L31.2831 17.6711H31.2654L30.822 19.2295H30.498L29.9116 17.1441H29.9123Z" fill="white"/>
<path d="M32.8586 19.2295L33.6175 17.1441H33.9881L34.7503 19.2295H34.4085L34.2164 18.6792H33.3932L33.2004 19.2295H32.8593H32.8586ZM34.1226 18.4144L33.8104 17.5248H33.7959L33.485 18.4144H34.1226Z" fill="white"/>
<path d="M35.3188 17.1441H36.0718C36.5638 17.1441 36.8045 17.4134 36.8045 17.798C36.8045 18.079 36.6759 18.2907 36.4195 18.3872L36.8865 19.2295H36.5218L36.0928 18.4429H35.6409V19.2295H35.3195V17.1441H35.3188ZM36.0397 18.1696C36.3506 18.1683 36.4805 18.0324 36.4805 17.798C36.4805 17.5636 36.3506 17.4166 36.0397 17.4153H35.6402V18.1703H36.0397V18.1696Z" fill="white"/>
<path d="M37.4604 17.1441H38.7854V17.4179H37.7818V18.0486H38.7158V18.3192H37.7818V18.9556H38.7972V19.2289H37.4604V17.1434V17.1441Z" fill="white"/>
<path d="M40.3484 19.2295L41.1073 17.1441H41.4779L42.24 19.2295H41.8983L41.7061 18.6792H40.883L40.6908 19.2295H40.349H40.3484ZM41.6123 18.4144L41.3001 17.5248H41.2857L40.9748 18.4144H41.6123Z" fill="white"/>
<path d="M43.5058 17.3894C43.2474 17.3894 43.0841 17.5202 43.0828 17.6976C43.0828 17.8951 43.2999 17.9728 43.4678 18.0117L43.6718 18.066C43.942 18.1308 44.2805 18.2765 44.2818 18.6533C44.2805 19.0068 43.9958 19.2638 43.4967 19.2638C43.0244 19.2638 42.7266 19.0308 42.7063 18.6507H43.0277C43.0467 18.878 43.2507 18.9861 43.4973 18.9874C43.7675 18.9861 43.963 18.8521 43.9643 18.6475C43.963 18.4662 43.7879 18.3924 43.5649 18.3334L43.3143 18.2674C42.9746 18.1755 42.764 18.0058 42.7627 17.7145C42.764 17.3545 43.088 17.1156 43.5157 17.1156C43.9433 17.1156 44.2437 17.3577 44.2542 17.695H43.942C43.9217 17.5002 43.7492 17.3894 43.5072 17.3894H43.5058Z" fill="white"/>
<path d="M45.7957 19.2295L46.5545 17.1441H46.9251L47.6873 19.2295H47.3455L47.1534 18.6792H46.3302L46.138 19.2295H45.7963H45.7957ZM47.0596 18.4144L46.7474 17.5248H46.7329L46.422 18.4144H47.0596Z" fill="white"/>
<path d="M49.9993 17.3894C49.7408 17.3894 49.5775 17.5202 49.5762 17.6976C49.5762 17.8951 49.7933 17.9728 49.9612 18.0117L50.1652 18.066C50.4354 18.1308 50.7739 18.2765 50.7752 18.6533C50.7739 19.0068 50.4892 19.2638 49.9901 19.2638C49.5178 19.2638 49.22 19.0308 49.1997 18.6507H49.5211C49.5401 18.878 49.7441 18.9861 49.9907 18.9874C50.261 18.9861 50.4564 18.8521 50.4577 18.6475C50.4564 18.4662 50.2813 18.3924 50.0583 18.3334L49.8071 18.2674C49.4673 18.1755 49.2568 18.0058 49.2555 17.7145C49.2568 17.3545 49.5808 17.1156 50.0084 17.1156C50.4361 17.1156 50.7365 17.3577 50.747 17.695H50.4348C50.4144 17.5002 50.2419 17.3894 49.9999 17.3894H49.9993Z" fill="white"/>
<path d="M51.4214 17.1441H52.7463V17.4179H51.7421V18.0486H52.6761V18.3192H51.7421V18.9556H52.7581V19.2289H51.4214V17.1434V17.1441Z" fill="white"/>
<path d="M53.4402 17.1441H54.1925C54.6844 17.1441 54.9251 17.4134 54.9251 17.798C54.9251 18.079 54.7966 18.2907 54.5401 18.3872L55.0071 19.2295H54.6425L54.2135 18.4429H53.7616V19.2295H53.4402V17.1441ZM54.161 18.1696C54.4719 18.1683 54.6018 18.0324 54.6018 17.798C54.6018 17.5636 54.4719 17.4166 54.161 17.4153H53.7616V18.1703H54.161V18.1696Z" fill="white"/>
<path d="M56.3027 18.841H56.3263L56.9126 17.1447H57.2603L56.4981 19.2302H56.1275L55.3687 17.1447H55.7163L56.3027 18.841Z" fill="white"/>
<path d="M58.1495 19.2295H57.8281V17.1441H58.1495V19.2295Z" fill="white"/>
<path d="M59.7624 17.4063C59.3978 17.4043 59.1282 17.6808 59.1262 18.1865C59.1282 18.6947 59.3991 18.9686 59.7624 18.9673C60.0281 18.9692 60.2531 18.8223 60.3082 18.5555L60.6322 18.5588C60.5653 18.9705 60.2249 19.2587 59.7598 19.2587C59.2095 19.2587 58.8081 18.854 58.8081 18.1871C58.8081 17.5202 59.2128 17.1156 59.7598 17.1156C60.2065 17.1156 60.5607 17.3765 60.6322 17.8239H60.3082C60.257 17.5545 60.0307 17.405 59.7624 17.4063Z" fill="white"/>
<path d="M61.2803 17.1441H62.6052V17.4179H61.6017V18.0486H62.5357V18.3192H61.6017V18.9556H62.617V19.2289H61.2803V17.1434V17.1441Z" fill="white"/>
<path d="M2.15005 10.9408H2.16907V9.58886C2.16907 9.18032 2.50489 8.84882 2.91876 8.84882H3.9177C5.30493 8.84882 6.42915 7.73907 6.42915 6.3697V5.30528H2.14939V8.09C2.14939 8.49854 1.81357 8.83004 1.39969 8.83004H0V10.9686H2.15005V10.9401V10.9408Z" fill="white"/>
<path d="M14.1328 8.61444H14.2935V8.58984H14.3125V5.53059H12.3749C11.6384 5.52995 10.9857 5.23988 10.501 4.76465C10.0189 4.28618 9.72575 3.6426 9.7251 2.91486V3.38168C9.7251 6.27193 11.2048 8.61444 14.1328 8.61444Z" fill="url(#paint0_linear_3634_10275)"/>
<path d="M14.1328 8.61444C11.2049 8.61444 9.72517 6.27193 9.72517 3.38168V0L6.82739 4.49401C7.10222 5.43412 7.61054 6.27841 8.29005 6.94788C9.33097 7.97734 10.7851 8.61897 12.3757 8.61832H14.2942V8.61444H14.1335H14.1328Z" fill="white"/>
<path d="M14.313 8.58984V8.61832H14.294V9.97022C14.294 10.3788 13.9582 10.7103 13.5443 10.7103H12.5454C11.1582 10.7103 10.0339 11.82 10.0339 13.1894V14.2538H14.3137V11.4691C14.3137 11.0605 14.6495 10.729 15.0634 10.729H16.4637V8.59048H14.3137L14.313 8.58984Z" fill="white"/>
<path d="M14.3122 8.58984H14.2935V8.61444H14.3122V8.58984Z" fill="#7477B8"/>
<path d="M14.3125 8.61444H14.2935V8.61832H14.3125V8.61444Z" fill="#7477B8"/>
<path d="M2.32986 10.9446H2.16917V10.9692H2.15015V14.0285H4.08768C4.82426 14.0291 5.47688 14.3192 5.96159 14.7944C6.44368 15.2729 6.73687 15.9171 6.73752 16.6442V16.1774C6.73752 13.2871 5.25781 10.9446 2.32986 10.9446Z" fill="url(#paint1_linear_3634_10275)"/>
<path d="M2.16885 10.9446H2.15015V10.9692H2.16885V10.9446Z" fill="#7477B8"/>
<path d="M2.16885 10.9446H2.15015V10.9692H2.16885V10.9446Z" fill="url(#paint2_linear_3634_10275)"/>
<path d="M8.17307 12.6112C7.13215 11.5817 5.67802 10.9401 4.08746 10.9408H2.16895V10.9446H2.32964C5.25759 10.9446 6.7373 13.2878 6.7373 16.1774V20L9.61408 14.9841C9.33401 14.0758 8.8329 13.2613 8.17241 12.6112H8.17307Z" fill="white"/>
<path d="M2.16922 10.9408H2.15015V10.9446H2.16922V10.9408Z" fill="#7477B8"/>
<path d="M2.16922 10.9408H2.15015V10.9446H2.16922V10.9408Z" fill="url(#paint3_linear_3634_10275)"/>
</g>
<defs>
<linearGradient id="paint0_linear_3634_10275" x1="15.3081" y1="5.76433" x2="9.05542" y2="5.76433" gradientUnits="userSpaceOnUse">
<stop stop-color="white"/>
<stop offset="0.1" stop-color="white" stop-opacity="0.98"/>
<stop offset="0.22" stop-color="white" stop-opacity="0.92"/>
<stop offset="0.35" stop-color="white" stop-opacity="0.83"/>
<stop offset="0.48" stop-color="white" stop-opacity="0.69"/>
<stop offset="0.63" stop-color="white" stop-opacity="0.52"/>
<stop offset="0.77" stop-color="white" stop-opacity="0.31"/>
<stop offset="0.92" stop-color="white" stop-opacity="0.06"/>
<stop offset="0.96" stop-color="white" stop-opacity="0"/>
</linearGradient>
<linearGradient id="paint1_linear_3634_10275" x1="1.15449" y1="13.7941" x2="7.4072" y2="13.7941" gradientUnits="userSpaceOnUse">
<stop stop-color="white"/>
<stop offset="0.1" stop-color="white" stop-opacity="0.98"/>
<stop offset="0.22" stop-color="white" stop-opacity="0.92"/>
<stop offset="0.35" stop-color="white" stop-opacity="0.83"/>
<stop offset="0.48" stop-color="white" stop-opacity="0.69"/>
<stop offset="0.63" stop-color="white" stop-opacity="0.52"/>
<stop offset="0.77" stop-color="white" stop-opacity="0.31"/>
<stop offset="0.92" stop-color="white" stop-opacity="0.06"/>
<stop offset="0.96" stop-color="white" stop-opacity="0"/>
</linearGradient>
<linearGradient id="paint2_linear_3634_10275" x1="1.16979" y1="10.9569" x2="7.3254" y2="10.9569" gradientUnits="userSpaceOnUse">
<stop stop-color="#5B57A6"/>
<stop offset="1" stop-color="#150F25"/>
</linearGradient>
<linearGradient id="paint3_linear_3634_10275" x1="2.16001" y1="10.5607" x2="2.16001" y2="20.5389" gradientUnits="userSpaceOnUse">
<stop stop-color="#7477B8"/>
<stop offset="1" stop-color="#3B328D"/>
</linearGradient>
<clipPath id="clip0_3634_10275">
<rect width="63" height="20" fill="white"/>
</clipPath>
</defs>
</svg>
