<svg width="100" height="32" viewBox="0 0 100 32" fill="none" xmlns="http://www.w3.org/2000/svg">
<g clip-path="url(#clip0_3634_9739)">
<path d="M54.4804 6.47873V20.7062H64.6532V24.1093H54.7303C52.5471 24.1093 50.7762 22.3482 50.7762 20.1748V6.47873H54.4804Z" fill="white"/>
<path d="M47.2457 9.88177V6.47873H36.9502C34.5806 6.47873 32.6587 8.39003 32.6587 10.7489V19.8402C32.6587 22.198 34.5795 24.1103 36.9502 24.1103H47.2457V20.7073H36.364V9.88281H47.2457V9.88177Z" fill="white"/>
<path d="M81.5192 6.49116V9.88281H71.3465V14.1933H81.5192V17.585H71.3465V24.1103H67.6422V9.95222C67.6422 8.03988 69.1997 6.49013 71.1216 6.49013H81.5192V6.49116Z" fill="white"/>
<path d="M89.9116 24.1093V17.4254L83.5036 6.50359H87.7513L91.7513 13.7158L95.7523 6.50359H99.999L93.6034 17.4254V24.1093H89.9116Z" fill="white"/>
<path d="M34.9741 27.8231C34.5639 27.8231 34.3047 28.0324 34.3026 28.3162C34.3026 28.6322 34.6472 28.7565 34.9137 28.8186L35.2386 28.9057C35.6665 29.0093 36.2037 29.2423 36.2058 29.8453C36.2037 30.4109 35.7518 30.8221 34.9596 30.8221C34.21 30.8221 33.7373 30.4492 33.705 29.8411H34.2152C34.2453 30.2047 34.5691 30.3777 34.9606 30.3798C35.3895 30.3777 35.6998 30.1633 35.7019 29.8359C35.6998 29.5459 35.4218 29.4278 35.0678 29.3335L34.6701 29.2278C34.1308 29.0807 33.7966 28.8093 33.7945 28.3432C33.7966 27.7672 34.3109 27.3849 34.9897 27.3849C35.6685 27.3849 36.1454 27.7724 36.162 28.3121H35.6665C35.6342 28.0003 35.3604 27.8231 34.9762 27.8231H34.9741Z" fill="white"/>
<path d="M38.6326 30.8139C37.7601 30.8139 37.1178 30.1643 37.1178 29.0994C37.1178 28.0344 37.7601 27.3849 38.6326 27.3849C39.5051 27.3849 40.1422 28.0324 40.1422 29.0994C40.1422 30.1664 39.4988 30.8139 38.6326 30.8139ZM38.6326 30.3477C39.2063 30.3508 39.6352 29.9095 39.6373 29.0984C39.6352 28.2872 39.2063 27.8469 38.6326 27.85C38.0537 27.8469 37.6258 28.2872 37.6227 29.0984C37.6258 29.9095 38.0537 30.3498 38.6326 30.3477Z" fill="white"/>
<path d="M41.1958 27.4305H43.276V27.8687H41.7049V28.8777H43.1271V29.3107H41.7049V30.7672H41.1958V27.4305Z" fill="white"/>
<path d="M44.1547 27.4305H46.7533V27.8687H45.7111V30.7672H45.201V27.8687H44.1547V27.4305Z" fill="white"/>
<path d="M47.48 27.4305H48.0172L48.67 30.011H48.6981L49.379 27.4305H49.9068L50.5877 30.011H50.6158L51.2686 27.4305H51.8058L50.8751 30.7672H50.3607L49.6559 28.2737H49.6278L48.924 30.7672H48.4097L47.4789 27.4305H47.48Z" fill="white"/>
<path d="M52.1567 30.7672L53.3612 27.4305H53.9495L55.1592 30.7672H54.6168L54.3118 29.8867H53.0052L52.6991 30.7672H52.1577H52.1567ZM54.1629 29.463L53.6673 28.0396H53.6444L53.1509 29.463H54.1629Z" fill="white"/>
<path d="M56.0619 27.4305H57.2571C58.0379 27.4305 58.42 27.8614 58.42 28.4768C58.42 28.9264 58.2159 29.2651 57.8089 29.4195L58.5501 30.7672H57.9713L57.2904 29.5086H56.5731V30.7672H56.0629V27.4305H56.0619ZM57.2061 29.0714C57.6996 29.0693 57.9057 28.8518 57.9057 28.4768C57.9057 28.1018 57.6996 27.8666 57.2061 27.8646H56.572V29.0725H57.2061V29.0714Z" fill="white"/>
<path d="M59.4611 27.4305H61.5642V27.8687H59.9713V28.8777H61.4538V29.3107H59.9713V30.329H61.5829V30.7662H59.4611V27.4295V27.4305Z" fill="white"/>
<path d="M64.0451 30.7672L65.2497 27.4305H65.8379L67.0477 30.7672H66.5053L66.2002 29.8867H64.8937L64.5886 30.7672H64.0462H64.0451ZM66.0514 29.463L65.5558 28.0396H65.5329L65.0394 29.463H66.0514Z" fill="white"/>
<path d="M69.0571 27.8231C68.6469 27.8231 68.3876 28.0324 68.3855 28.3162C68.3855 28.6322 68.7302 28.7565 68.9967 28.8186L69.3205 28.9057C69.7494 29.0093 70.2866 29.2423 70.2887 29.8453C70.2866 30.4109 69.8348 30.8221 69.0425 30.8221C68.2929 30.8221 67.8202 30.4492 67.7879 29.8411H68.2981C68.3283 30.2047 68.6521 30.3777 69.0435 30.3798C69.4725 30.3777 69.7827 30.1633 69.7848 29.8359C69.7827 29.5459 69.5047 29.4278 69.1508 29.3335L68.7531 29.2278C68.2138 29.0807 67.8796 28.8093 67.8775 28.3432C67.8796 27.7672 68.3939 27.3849 69.0727 27.3849C69.7515 27.3849 70.2283 27.7724 70.245 28.3121H69.7494C69.7171 28.0003 69.4433 27.8231 69.0592 27.8231H69.0571Z" fill="white"/>
<path d="M72.6916 30.7672L73.8962 27.4305H74.4844L75.6942 30.7672H75.1517L74.8467 29.8867H73.5401L73.235 30.7672H72.6926H72.6916ZM74.6978 29.463L74.2022 28.0396H74.1793L73.6859 29.463H74.6978Z" fill="white"/>
<path d="M79.3641 27.8231C78.9539 27.8231 78.6947 28.0324 78.6926 28.3162C78.6926 28.6322 79.0372 28.7565 79.3037 28.8186L79.6275 28.9057C80.0564 29.0093 80.5936 29.2423 80.5957 29.8453C80.5936 30.4109 80.1418 30.8221 79.3495 30.8221C78.5999 30.8221 78.1272 30.4492 78.095 29.8411H78.6051C78.6353 30.2047 78.9591 30.3777 79.3506 30.3798C79.7795 30.3777 80.0897 30.1633 80.0918 29.8359C80.0897 29.5459 79.8118 29.4278 79.4578 29.3335L79.059 29.2278C78.5197 29.0807 78.1856 28.8093 78.1835 28.3432C78.1856 27.7672 78.6999 27.3849 79.3787 27.3849C80.0575 27.3849 80.5343 27.7724 80.551 28.3121H80.0554C80.0231 28.0003 79.7493 27.8231 79.3651 27.8231H79.3641Z" fill="white"/>
<path d="M81.6212 27.4305H83.7243V27.8687H82.1303V28.8777H83.6129V29.3107H82.1303V30.329H83.743V30.7662H81.6212V27.4295V27.4305Z" fill="white"/>
<path d="M84.8258 27.4305H86.0199C86.8008 27.4305 87.1829 27.8614 87.1829 28.4768C87.1829 28.9264 86.9788 29.2651 86.5717 29.4195L87.313 30.7672H86.7341L86.0532 29.5086H85.3359V30.7672H84.8258V27.4305ZM85.97 29.0714C86.4634 29.0693 86.6696 28.8518 86.6696 28.4768C86.6696 28.1018 86.4634 27.8666 85.97 27.8646H85.3359V29.0725H85.97V29.0714Z" fill="white"/>
<path d="M89.3692 30.1457H89.4067L90.3374 27.4315H90.8892L89.6794 30.7683H89.0912L87.8866 27.4315H88.4384L89.3692 30.1457Z" fill="white"/>
<path d="M92.301 30.7672H91.7908V27.4305H92.301V30.7672Z" fill="white"/>
<path d="M94.8611 27.85C94.2822 27.8469 93.8543 28.2893 93.8512 29.0984C93.8543 29.9116 94.2843 30.3498 94.8611 30.3477C95.2827 30.3508 95.6398 30.1156 95.7273 29.6888L96.2416 29.694C96.1354 30.3529 95.595 30.8139 94.8569 30.8139C93.9834 30.8139 93.3462 30.1664 93.3462 29.0994C93.3462 28.0324 93.9886 27.3849 94.8569 27.3849C95.5659 27.3849 96.1281 27.8024 96.2416 28.5182H95.7273C95.6461 28.0873 95.2869 27.848 94.8611 27.85Z" fill="white"/>
<path d="M97.2702 27.4305H99.3733V27.8687H97.7804V28.8777H99.2629V29.3107H97.7804V30.329H99.392V30.7662H97.2702V27.4295V27.4305Z" fill="white"/>
<path d="M3.41277 17.5052H3.44296V15.3422C3.44296 14.6885 3.97601 14.1581 4.63296 14.1581H6.21857C8.42053 14.1581 10.205 12.3825 10.205 10.1915V8.48844H3.41173V12.944C3.41173 13.5977 2.87868 14.1281 2.22174 14.1281H0V17.5498H3.41277V17.5042V17.5052Z" fill="white"/>
<path d="M22.4329 13.7831H22.6879V13.7437H22.7181V8.84895H19.6427C18.4735 8.84791 17.4376 8.38381 16.6682 7.62344C15.903 6.85788 15.4376 5.82816 15.4366 4.66377V5.41068C15.4366 10.0351 17.7853 13.7831 22.4329 13.7831Z" fill="url(#paint0_linear_3634_9739)"/>
<path d="M22.4329 13.7831C17.7853 13.7831 15.4366 10.0351 15.4366 5.41068V0L10.837 7.19042C11.2732 8.69459 12.08 10.0455 13.1586 11.1166C14.8109 12.7637 17.119 13.7904 19.6437 13.7893H22.689V13.7831H22.4339H22.4329Z" fill="white"/>
<path d="M22.7192 13.7437V13.7893H22.689V15.9523C22.689 16.606 22.1559 17.1364 21.499 17.1364H19.9134C17.7114 17.1364 15.927 18.912 15.927 21.103V22.8061H22.7202V18.3505C22.7202 17.6969 23.2533 17.1665 23.9102 17.1665H26.133V13.7448H22.7202L22.7192 13.7437Z" fill="white"/>
<path d="M22.7176 13.7437H22.6879V13.7831H22.7176V13.7437Z" fill="#7477B8"/>
<path d="M22.7182 13.7831H22.6879V13.7893H22.7182V13.7831Z" fill="#7477B8"/>
<path d="M3.69803 17.5114H3.44296V17.5508H3.41277V22.4456H6.48822C7.65739 22.4466 8.6933 22.9107 9.46268 23.6711C10.2279 24.4366 10.6933 25.4674 10.6943 26.6308V25.8838C10.6943 21.2594 8.34557 17.5114 3.69803 17.5114Z" fill="url(#paint1_linear_3634_9739)"/>
<path d="M3.44246 17.5114H3.41277V17.5508H3.44246V17.5114Z" fill="#7477B8"/>
<path d="M3.44246 17.5114H3.41277V17.5508H3.44246V17.5114Z" fill="url(#paint2_linear_3634_9739)"/>
<path d="M12.9733 20.1779C11.3211 18.5308 9.01292 17.5042 6.48822 17.5052H3.44296V17.5114H3.69804C8.34557 17.5114 10.6943 21.2605 10.6943 25.8838V32L15.2606 23.9746C14.8161 22.5212 14.0207 21.218 12.9723 20.1779H12.9733Z" fill="white"/>
<path d="M3.44305 17.5052H3.41277V17.5114H3.44305V17.5052Z" fill="#7477B8"/>
<path d="M3.44305 17.5052H3.41277V17.5114H3.44305V17.5052Z" fill="url(#paint3_linear_3634_9739)"/>
</g>
<defs>
<linearGradient id="paint0_linear_3634_9739" x1="24.2986" y1="9.22292" x2="14.3736" y2="9.22292" gradientUnits="userSpaceOnUse">
<stop stop-color="white"/>
<stop offset="0.1" stop-color="white" stop-opacity="0.98"/>
<stop offset="0.22" stop-color="white" stop-opacity="0.92"/>
<stop offset="0.35" stop-color="white" stop-opacity="0.83"/>
<stop offset="0.48" stop-color="white" stop-opacity="0.69"/>
<stop offset="0.63" stop-color="white" stop-opacity="0.52"/>
<stop offset="0.77" stop-color="white" stop-opacity="0.31"/>
<stop offset="0.92" stop-color="white" stop-opacity="0.06"/>
<stop offset="0.96" stop-color="white" stop-opacity="0"/>
</linearGradient>
<linearGradient id="paint1_linear_3634_9739" x1="1.83236" y1="22.0706" x2="11.7573" y2="22.0706" gradientUnits="userSpaceOnUse">
<stop stop-color="white"/>
<stop offset="0.1" stop-color="white" stop-opacity="0.98"/>
<stop offset="0.22" stop-color="white" stop-opacity="0.92"/>
<stop offset="0.35" stop-color="white" stop-opacity="0.83"/>
<stop offset="0.48" stop-color="white" stop-opacity="0.69"/>
<stop offset="0.63" stop-color="white" stop-opacity="0.52"/>
<stop offset="0.77" stop-color="white" stop-opacity="0.31"/>
<stop offset="0.92" stop-color="white" stop-opacity="0.06"/>
<stop offset="0.96" stop-color="white" stop-opacity="0"/>
</linearGradient>
<linearGradient id="paint2_linear_3634_9739" x1="1.85665" y1="17.5311" x2="11.6275" y2="17.5311" gradientUnits="userSpaceOnUse">
<stop stop-color="#5B57A6"/>
<stop offset="1" stop-color="#150F25"/>
</linearGradient>
<linearGradient id="paint3_linear_3634_9739" x1="3.42843" y1="16.8971" x2="3.42843" y2="32.8623" gradientUnits="userSpaceOnUse">
<stop stop-color="#7477B8"/>
<stop offset="1" stop-color="#3B328D"/>
</linearGradient>
<clipPath id="clip0_3634_9739">
<rect width="100" height="32" fill="white"/>
</clipPath>
</defs>
</svg>
