<svg width="14" height="15" viewBox="0 0 14 15" fill="none" xmlns="http://www.w3.org/2000/svg">
<path d="M7 0.5C10.866 0.5 14 3.63401 14 7.5C14 11.366 10.866 14.5 7 14.5C3.13401 14.5 0 11.366 0 7.5C0 3.63401 3.13401 0.5 7 0.5ZM4.28613 11.6982C5.06791 12.2046 5.99919 12.5 7 12.5C9.76142 12.5 12 10.2614 12 7.5C12 6.49919 11.7046 5.56791 11.1982 4.78613L4.28613 11.6982ZM7 2.5C4.23858 2.5 2 4.73858 2 7.5C2 8.5373 2.31563 9.501 2.85645 10.2998L9.7998 3.35645C9.001 2.81563 8.0373 2.5 7 2.5Z" fill="#4E4DA8"/>
</svg>
