<svg width="26" height="23" viewBox="0 0 26 23" fill="none" xmlns="http://www.w3.org/2000/svg">
<rect y="0.5" width="26" height="22" rx="2" fill="#DDDDDD"/>
<path d="M13.5834 6.25C12.191 6.25 10.8556 6.80312 9.87106 7.78769C8.8865 8.77226 8.33337 10.1076 8.33337 11.5H6.58337L8.85254 13.7692L8.89337 13.8508L11.25 11.5H9.50004C9.50004 10.417 9.93025 9.37842 10.696 8.61265C11.4618 7.84687 12.5004 7.41667 13.5834 7.41667C14.6663 7.41667 15.705 7.84687 16.4707 8.61265C17.2365 9.37842 17.6667 10.417 17.6667 11.5C17.6667 12.583 17.2365 13.6216 16.4707 14.3874C15.705 15.1531 14.6663 15.5833 13.5834 15.5833C12.4575 15.5833 11.4367 15.1225 10.7017 14.3817L9.87337 15.21C10.8242 16.1667 12.125 16.75 13.5834 16.75C14.9758 16.75 16.3111 16.1969 17.2957 15.2123C18.2802 14.2277 18.8334 12.8924 18.8334 11.5C18.8334 10.1076 18.2802 8.77226 17.2957 7.78769C16.3111 6.80312 14.9758 6.25 13.5834 6.25Z" fill="#F9F9F9"/>
</svg>
