<svg width="14" height="14" viewBox="0 0 14 14" fill="none" xmlns="http://www.w3.org/2000/svg">
<rect x="6.5625" width="0.875" height="2.625" rx="0.4375" fill="#ACACAC" fill-opacity="0.05"/>
<rect x="6.5625" y="11.375" width="0.875" height="2.625" rx="0.4375" fill="#ACACAC" fill-opacity="0.5"/>
<rect y="7.4375" width="0.875001" height="2.625" rx="0.4375" transform="rotate(-90 0 7.4375)" fill="#ACACAC" fill-opacity="0.22"/>
<rect x="11.375" y="7.4375" width="0.875001" height="2.625" rx="0.4375" transform="rotate(-90 11.375 7.4375)" fill="#ACACAC" fill-opacity="0.8"/>
<rect x="1.15649" y="10.8789" width="0.875001" height="2.625" rx="0.4375" transform="rotate(-120 1.15649 10.8789)" fill="#ACACAC" fill-opacity="0.3"/>
<rect x="11.0076" y="5.19135" width="0.875001" height="2.625" rx="0.4375" transform="rotate(-120 11.0076 5.19135)" fill="#ACACAC" fill-opacity="0.9"/>
<rect x="3.87891" y="13.2809" width="0.875" height="2.625" rx="0.4375" transform="rotate(-150 3.87891 13.2809)" fill="#ACACAC" fill-opacity="0.4"/>
<rect x="9.56641" y="3.42987" width="0.875" height="2.625" rx="0.4375" transform="rotate(-150 9.56641 3.42987)" fill="#ACACAC"/>
<rect x="0.718994" y="3.87891" width="0.875001" height="2.625" rx="0.4375" transform="rotate(-60 0.718994 3.87891)" fill="#ACACAC" fill-opacity="0.15"/>
<rect x="10.5701" y="9.56641" width="0.875001" height="2.625" rx="0.4375" transform="rotate(-60 10.5701 9.56641)" fill="#ACACAC" fill-opacity="0.7"/>
<rect x="3.12109" y="1.15662" width="0.875" height="2.625" rx="0.4375" transform="rotate(-30 3.12109 1.15662)" fill="#ACACAC" fill-opacity="0.1"/>
<rect x="8.80859" y="11.0076" width="0.875" height="2.625" rx="0.4375" transform="rotate(-30 8.80859 11.0076)" fill="#ACACAC" fill-opacity="0.6"/>
</svg>
