<svg width="21" height="20" viewBox="0 0 21 20" fill="none" xmlns="http://www.w3.org/2000/svg">
<path d="M9.54882 2.93152C9.84792 2.00969 11.1521 2.00969 11.4512 2.93152L12.7544 6.94795C12.8881 7.36017 13.2722 7.63932 13.7056 7.63932H17.9258C18.8942 7.63932 19.2972 8.87823 18.5141 9.44795L15.0975 11.9337C14.7475 12.1884 14.601 12.6393 14.7346 13.051L16.0391 17.0713C16.3381 17.9929 15.283 18.7586 14.4996 18.1886L11.0883 15.7067C10.7376 15.4515 10.2624 15.4515 9.91168 15.7067L6.50042 18.1886C5.71698 18.7586 4.6619 17.9929 4.96091 17.0713L6.26538 13.051C6.39896 12.6393 6.25252 12.1884 5.90252 11.9337L2.4859 9.44795C1.70284 8.87823 2.10584 7.63932 3.07422 7.63932H7.29443C7.72781 7.63932 8.11186 7.36017 8.24562 6.94795L9.54882 2.93152Z" fill="#4E4DA8"/>
</svg>
