<svg width="21" height="20" viewBox="0 0 21 20" fill="none" xmlns="http://www.w3.org/2000/svg">
<path d="M10.0244 3.08594C10.174 2.62502 10.826 2.62502 10.9756 3.08594L12.2783 7.10254C12.479 7.72081 13.056 8.13965 13.7061 8.13965H17.9258C18.41 8.13965 18.6113 8.75908 18.2197 9.04395L14.8037 11.5293C14.2788 11.9112 14.0586 12.5876 14.2588 13.2051L15.5635 17.2256C15.713 17.6863 15.1857 18.069 14.7939 17.7842L11.3828 15.3027C10.8567 14.92 10.1433 14.92 9.61719 15.3027L6.20605 17.7842C5.81435 18.069 5.28703 17.6863 5.43652 17.2256L6.74121 13.2051C6.94144 12.5876 6.72121 11.9112 6.19629 11.5293L2.78027 9.04395C2.38874 8.75909 2.59003 8.13965 3.07422 8.13965H7.29395C7.94397 8.13965 8.52102 7.72081 8.72168 7.10254L10.0244 3.08594Z" stroke="#4E4DA8"/>
</svg>
